<mxfile host="Electron" modified="2024-12-22T21:47:22.259Z" agent="Mozilla/5.0 (Windows NT 10.0; Win64; x64) AppleWebKit/537.36 (KHTML, like Gecko) draw.io/21.7.5 Chrome/114.0.5735.289 Electron/25.8.1 Safari/537.36" etag="xjVb-HxmO0SmW749clAv" version="21.7.5" type="device">
  <diagram name="Страница — 1" id="km5GLsN4K8V2EBjUOc2D">
    <mxGraphModel dx="1849" dy="600" grid="1" gridSize="10" guides="1" tooltips="1" connect="1" arrows="1" fold="1" page="1" pageScale="1" pageWidth="827" pageHeight="1169" math="0" shadow="0">
      <root>
        <mxCell id="0" />
        <mxCell id="1" parent="0" />
        <mxCell id="sLBkQJvPX62tekt5n0B0-3" value="" style="edgeStyle=orthogonalEdgeStyle;rounded=0;orthogonalLoop=1;jettySize=auto;html=1;" edge="1" parent="1" source="sLBkQJvPX62tekt5n0B0-1" target="sLBkQJvPX62tekt5n0B0-2">
          <mxGeometry relative="1" as="geometry" />
        </mxCell>
        <mxCell id="sLBkQJvPX62tekt5n0B0-1" value="Начало" style="rounded=1;whiteSpace=wrap;html=1;arcSize=50;" vertex="1" parent="1">
          <mxGeometry x="280" y="200" width="120" height="40" as="geometry" />
        </mxCell>
        <mxCell id="sLBkQJvPX62tekt5n0B0-33" style="edgeStyle=orthogonalEdgeStyle;rounded=0;orthogonalLoop=1;jettySize=auto;html=1;entryX=0.5;entryY=0;entryDx=0;entryDy=0;" edge="1" parent="1" source="sLBkQJvPX62tekt5n0B0-2" target="sLBkQJvPX62tekt5n0B0-7">
          <mxGeometry relative="1" as="geometry" />
        </mxCell>
        <mxCell id="sLBkQJvPX62tekt5n0B0-34" style="edgeStyle=orthogonalEdgeStyle;rounded=0;orthogonalLoop=1;jettySize=auto;html=1;entryX=0.5;entryY=0;entryDx=0;entryDy=0;exitX=0.5;exitY=1;exitDx=0;exitDy=0;" edge="1" parent="1" source="sLBkQJvPX62tekt5n0B0-2" target="sLBkQJvPX62tekt5n0B0-8">
          <mxGeometry relative="1" as="geometry" />
        </mxCell>
        <mxCell id="sLBkQJvPX62tekt5n0B0-35" style="edgeStyle=orthogonalEdgeStyle;rounded=0;orthogonalLoop=1;jettySize=auto;html=1;entryX=0.5;entryY=0;entryDx=0;entryDy=0;exitX=0.5;exitY=1;exitDx=0;exitDy=0;" edge="1" parent="1" source="sLBkQJvPX62tekt5n0B0-2" target="sLBkQJvPX62tekt5n0B0-12">
          <mxGeometry relative="1" as="geometry" />
        </mxCell>
        <mxCell id="sLBkQJvPX62tekt5n0B0-36" style="edgeStyle=orthogonalEdgeStyle;rounded=0;orthogonalLoop=1;jettySize=auto;html=1;entryX=0.5;entryY=0;entryDx=0;entryDy=0;exitX=0.5;exitY=1;exitDx=0;exitDy=0;" edge="1" parent="1" source="sLBkQJvPX62tekt5n0B0-2" target="sLBkQJvPX62tekt5n0B0-5">
          <mxGeometry relative="1" as="geometry" />
        </mxCell>
        <mxCell id="sLBkQJvPX62tekt5n0B0-37" style="edgeStyle=orthogonalEdgeStyle;rounded=0;orthogonalLoop=1;jettySize=auto;html=1;entryX=0.5;entryY=0;entryDx=0;entryDy=0;exitX=0.5;exitY=1;exitDx=0;exitDy=0;" edge="1" parent="1" source="sLBkQJvPX62tekt5n0B0-2" target="sLBkQJvPX62tekt5n0B0-4">
          <mxGeometry relative="1" as="geometry" />
        </mxCell>
        <mxCell id="sLBkQJvPX62tekt5n0B0-2" value="Нажата кнопка" style="rhombus;whiteSpace=wrap;html=1;" vertex="1" parent="1">
          <mxGeometry x="280" y="280" width="120" height="40" as="geometry" />
        </mxCell>
        <mxCell id="sLBkQJvPX62tekt5n0B0-32" style="edgeStyle=orthogonalEdgeStyle;rounded=0;orthogonalLoop=1;jettySize=auto;html=1;entryX=0.5;entryY=0;entryDx=0;entryDy=0;exitX=0.5;exitY=1;exitDx=0;exitDy=0;" edge="1" parent="1" source="sLBkQJvPX62tekt5n0B0-4" target="sLBkQJvPX62tekt5n0B0-28">
          <mxGeometry relative="1" as="geometry">
            <Array as="points">
              <mxPoint x="20" y="690" />
              <mxPoint x="380" y="690" />
            </Array>
          </mxGeometry>
        </mxCell>
        <mxCell id="sLBkQJvPX62tekt5n0B0-4" value="Вписать число в операнд" style="rounded=0;whiteSpace=wrap;html=1;" vertex="1" parent="1">
          <mxGeometry x="-40" y="400" width="120" height="40" as="geometry" />
        </mxCell>
        <mxCell id="sLBkQJvPX62tekt5n0B0-26" style="edgeStyle=orthogonalEdgeStyle;rounded=0;orthogonalLoop=1;jettySize=auto;html=1;entryX=0.5;entryY=0;entryDx=0;entryDy=0;" edge="1" parent="1" source="sLBkQJvPX62tekt5n0B0-5" target="sLBkQJvPX62tekt5n0B0-6">
          <mxGeometry relative="1" as="geometry" />
        </mxCell>
        <mxCell id="sLBkQJvPX62tekt5n0B0-5" value="Выбрать операцию &quot;+&quot;&amp;nbsp;" style="rounded=0;whiteSpace=wrap;html=1;" vertex="1" parent="1">
          <mxGeometry x="120" y="400" width="120" height="40" as="geometry" />
        </mxCell>
        <mxCell id="sLBkQJvPX62tekt5n0B0-31" style="edgeStyle=orthogonalEdgeStyle;rounded=0;orthogonalLoop=1;jettySize=auto;html=1;entryX=0.5;entryY=0;entryDx=0;entryDy=0;" edge="1" parent="1" source="sLBkQJvPX62tekt5n0B0-6" target="sLBkQJvPX62tekt5n0B0-28">
          <mxGeometry relative="1" as="geometry">
            <Array as="points">
              <mxPoint x="260" y="690" />
              <mxPoint x="380" y="690" />
            </Array>
          </mxGeometry>
        </mxCell>
        <mxCell id="sLBkQJvPX62tekt5n0B0-6" value="Переключиться на операнд B" style="rounded=0;whiteSpace=wrap;html=1;" vertex="1" parent="1">
          <mxGeometry x="200" y="480" width="120" height="40" as="geometry" />
        </mxCell>
        <mxCell id="sLBkQJvPX62tekt5n0B0-27" style="edgeStyle=orthogonalEdgeStyle;rounded=0;orthogonalLoop=1;jettySize=auto;html=1;exitX=0.5;exitY=1;exitDx=0;exitDy=0;" edge="1" parent="1" source="sLBkQJvPX62tekt5n0B0-7">
          <mxGeometry relative="1" as="geometry">
            <mxPoint x="260" y="480" as="targetPoint" />
          </mxGeometry>
        </mxCell>
        <mxCell id="sLBkQJvPX62tekt5n0B0-7" value="Выбрать операцию &quot;ИЛИ&quot;" style="rounded=0;whiteSpace=wrap;html=1;" vertex="1" parent="1">
          <mxGeometry x="280" y="400" width="120" height="40" as="geometry" />
        </mxCell>
        <mxCell id="sLBkQJvPX62tekt5n0B0-15" value="" style="edgeStyle=orthogonalEdgeStyle;rounded=0;orthogonalLoop=1;jettySize=auto;html=1;" edge="1" parent="1" source="sLBkQJvPX62tekt5n0B0-8" target="sLBkQJvPX62tekt5n0B0-9">
          <mxGeometry relative="1" as="geometry" />
        </mxCell>
        <mxCell id="sLBkQJvPX62tekt5n0B0-8" value="Очистить регистр A" style="rounded=0;whiteSpace=wrap;html=1;" vertex="1" parent="1">
          <mxGeometry x="440" y="400" width="120" height="40" as="geometry" />
        </mxCell>
        <mxCell id="sLBkQJvPX62tekt5n0B0-17" style="edgeStyle=orthogonalEdgeStyle;rounded=0;orthogonalLoop=1;jettySize=auto;html=1;entryX=0.5;entryY=0;entryDx=0;entryDy=0;" edge="1" parent="1" source="sLBkQJvPX62tekt5n0B0-9" target="sLBkQJvPX62tekt5n0B0-10">
          <mxGeometry relative="1" as="geometry" />
        </mxCell>
        <mxCell id="sLBkQJvPX62tekt5n0B0-9" value="Очистить регистр B" style="rounded=0;whiteSpace=wrap;html=1;" vertex="1" parent="1">
          <mxGeometry x="440" y="480" width="120" height="40" as="geometry" />
        </mxCell>
        <mxCell id="sLBkQJvPX62tekt5n0B0-18" value="" style="edgeStyle=orthogonalEdgeStyle;rounded=0;orthogonalLoop=1;jettySize=auto;html=1;" edge="1" parent="1" source="sLBkQJvPX62tekt5n0B0-10" target="sLBkQJvPX62tekt5n0B0-11">
          <mxGeometry relative="1" as="geometry" />
        </mxCell>
        <mxCell id="sLBkQJvPX62tekt5n0B0-10" value="Очистить регистр C" style="rounded=0;whiteSpace=wrap;html=1;" vertex="1" parent="1">
          <mxGeometry x="440" y="560" width="120" height="40" as="geometry" />
        </mxCell>
        <mxCell id="sLBkQJvPX62tekt5n0B0-29" style="edgeStyle=orthogonalEdgeStyle;rounded=0;orthogonalLoop=1;jettySize=auto;html=1;entryX=0.5;entryY=0;entryDx=0;entryDy=0;" edge="1" parent="1" source="sLBkQJvPX62tekt5n0B0-11" target="sLBkQJvPX62tekt5n0B0-28">
          <mxGeometry relative="1" as="geometry">
            <Array as="points">
              <mxPoint x="500" y="690" />
              <mxPoint x="380" y="690" />
            </Array>
          </mxGeometry>
        </mxCell>
        <mxCell id="sLBkQJvPX62tekt5n0B0-11" value="Переключиться на операнд А" style="rounded=0;whiteSpace=wrap;html=1;" vertex="1" parent="1">
          <mxGeometry x="440" y="630" width="120" height="40" as="geometry" />
        </mxCell>
        <mxCell id="sLBkQJvPX62tekt5n0B0-14" value="" style="edgeStyle=orthogonalEdgeStyle;rounded=0;orthogonalLoop=1;jettySize=auto;html=1;" edge="1" parent="1" source="sLBkQJvPX62tekt5n0B0-12" target="sLBkQJvPX62tekt5n0B0-13">
          <mxGeometry relative="1" as="geometry" />
        </mxCell>
        <mxCell id="sLBkQJvPX62tekt5n0B0-12" value="Запись результата в регистр C" style="rounded=0;whiteSpace=wrap;html=1;" vertex="1" parent="1">
          <mxGeometry x="600" y="400" width="120" height="40" as="geometry" />
        </mxCell>
        <mxCell id="sLBkQJvPX62tekt5n0B0-13" value="Нажата очистка &quot;C&quot;?" style="rhombus;whiteSpace=wrap;html=1;" vertex="1" parent="1">
          <mxGeometry x="600" y="480" width="120" height="40" as="geometry" />
        </mxCell>
        <mxCell id="sLBkQJvPX62tekt5n0B0-23" value="" style="endArrow=classic;html=1;rounded=0;" edge="1" parent="1">
          <mxGeometry width="50" height="50" relative="1" as="geometry">
            <mxPoint x="720" y="500" as="sourcePoint" />
            <mxPoint x="660" y="460" as="targetPoint" />
            <Array as="points">
              <mxPoint x="760" y="500" />
              <mxPoint x="760" y="460" />
            </Array>
          </mxGeometry>
        </mxCell>
        <mxCell id="sLBkQJvPX62tekt5n0B0-24" value="Нет" style="text;html=1;strokeColor=none;fillColor=none;align=center;verticalAlign=middle;whiteSpace=wrap;rounded=0;" vertex="1" parent="1">
          <mxGeometry x="690" y="470" width="60" height="30" as="geometry" />
        </mxCell>
        <mxCell id="sLBkQJvPX62tekt5n0B0-25" value="Да" style="text;html=1;strokeColor=none;fillColor=none;align=center;verticalAlign=middle;whiteSpace=wrap;rounded=0;" vertex="1" parent="1">
          <mxGeometry x="650" y="520" width="60" height="30" as="geometry" />
        </mxCell>
        <mxCell id="sLBkQJvPX62tekt5n0B0-28" value="Конец" style="rounded=1;whiteSpace=wrap;html=1;arcSize=50;" vertex="1" parent="1">
          <mxGeometry x="320" y="720" width="120" height="40" as="geometry" />
        </mxCell>
        <mxCell id="sLBkQJvPX62tekt5n0B0-38" value="Цифра" style="text;html=1;strokeColor=none;fillColor=none;align=center;verticalAlign=middle;whiteSpace=wrap;rounded=0;" vertex="1" parent="1">
          <mxGeometry x="10" y="330" width="60" height="30" as="geometry" />
        </mxCell>
        <mxCell id="sLBkQJvPX62tekt5n0B0-39" value="&quot;+&quot;" style="text;html=1;strokeColor=none;fillColor=none;align=center;verticalAlign=middle;whiteSpace=wrap;rounded=0;" vertex="1" parent="1">
          <mxGeometry x="170" y="330" width="60" height="30" as="geometry" />
        </mxCell>
        <mxCell id="sLBkQJvPX62tekt5n0B0-40" value="&quot;ИЛИ&quot;" style="text;html=1;strokeColor=none;fillColor=none;align=center;verticalAlign=middle;whiteSpace=wrap;rounded=0;" vertex="1" parent="1">
          <mxGeometry x="340" y="360" width="60" height="30" as="geometry" />
        </mxCell>
        <mxCell id="sLBkQJvPX62tekt5n0B0-41" value="&quot;C&quot;" style="text;html=1;strokeColor=none;fillColor=none;align=center;verticalAlign=middle;whiteSpace=wrap;rounded=0;" vertex="1" parent="1">
          <mxGeometry x="490" y="330" width="60" height="30" as="geometry" />
        </mxCell>
        <mxCell id="sLBkQJvPX62tekt5n0B0-42" value="&quot;=&quot;" style="text;html=1;strokeColor=none;fillColor=none;align=center;verticalAlign=middle;whiteSpace=wrap;rounded=0;" vertex="1" parent="1">
          <mxGeometry x="630" y="330" width="60" height="30" as="geometry" />
        </mxCell>
        <mxCell id="sLBkQJvPX62tekt5n0B0-43" value="" style="endArrow=classic;html=1;rounded=0;exitX=0.5;exitY=1;exitDx=0;exitDy=0;" edge="1" parent="1" source="sLBkQJvPX62tekt5n0B0-13">
          <mxGeometry width="50" height="50" relative="1" as="geometry">
            <mxPoint x="630" y="560" as="sourcePoint" />
            <mxPoint x="500" y="380" as="targetPoint" />
            <Array as="points">
              <mxPoint x="660" y="560" />
              <mxPoint x="580" y="560" />
              <mxPoint x="580" y="380" />
            </Array>
          </mxGeometry>
        </mxCell>
      </root>
    </mxGraphModel>
  </diagram>
</mxfile>
